ModelForces
version=1
nRows=4
nColumns=206
inDegrees=no

This file contains the forces exerted on a model during a simulation.

A force is a generalized force, meaning that it can be either a force (N) or a torque (Nm).

Units are S.I. units (second, meters, Newtons, ...)
Angles are in degrees.

endheader
time	glut_med1_r	glut_med2_r	glut_med3_r	glut_min1_r	glut_min2_r	glut_min3_r	semimem_r	semiten_r	bifemlh_r	bifemsh_r	sar_r	add_long_r	add_brev_r	add_mag1_r	add_mag2_r	add_mag3_r	tfl_r	pect_r	grac_r	glut_max1_r	glut_max2_r	glut_max3_r	iliacus_r	psoas_r	quad_fem_r	gem_r	peri_r	rect_fem_r	vas_med_r	vas_int_r	vas_lat_r	med_gas_r	lat_gas_r	soleus_r	tib_post_r	flex_dig_r	flex_hal_r	tib_ant_r	per_brev_r	per_long_r	per_tert_r	ext_dig_r	ext_hal_r	glut_med1_l	glut_med2_l	glut_med3_l	glut_min1_l	glut_min2_l	glut_min3_l	semimem_l	semiten_l	bifemlh_l	bifemsh_l	sar_l	add_long_l	add_brev_l	add_mag1_l	add_mag2_l	add_mag3_l	tfl_l	pect_l	grac_l	glut_max1_l	glut_max2_l	glut_max3_l	iliacus_l	psoas_l	quad_fem_l	gem_l	peri_l	rect_fem_l	vas_med_l	vas_int_l	vas_lat_l	med_gas_l	lat_gas_l	soleus_l	tib_post_l	flex_dig_l	flex_hal_l	tib_ant_l	per_brev_l	per_long_l	per_tert_l	ext_dig_l	ext_hal_l	ercspn_r	ercspn_l	intobl_r	intobl_l	extobl_r	extobl_l	femur_lat_meniscii_l.femur_lat_l.force.X	femur_lat_meniscii_l.femur_lat_l.force.Y	femur_lat_meniscii_l.femur_lat_l.force.Z	femur_lat_meniscii_l.femur_lat_l.torque.X	femur_lat_meniscii_l.femur_lat_l.torque.Y	femur_lat_meniscii_l.femur_lat_l.torque.Z	femur_lat_meniscii_l.meniscus_lat_l.force.X	femur_lat_meniscii_l.meniscus_lat_l.force.Y	femur_lat_meniscii_l.meniscus_lat_l.force.Z	femur_lat_meniscii_l.meniscus_lat_l.torque.X	femur_lat_meniscii_l.meniscus_lat_l.torque.Y	femur_lat_meniscii_l.meniscus_lat_l.torque.Z	femur_med_meniscii_l.femur_med_l.force.X	femur_med_meniscii_l.femur_med_l.force.Y	femur_med_meniscii_l.femur_med_l.force.Z	femur_med_meniscii_l.femur_med_l.torque.X	femur_med_meniscii_l.femur_med_l.torque.Y	femur_med_meniscii_l.femur_med_l.torque.Z	femur_med_meniscii_l.meniscus_med_l.force.X	femur_med_meniscii_l.meniscus_med_l.force.Y	femur_med_meniscii_l.meniscus_med_l.force.Z	femur_med_meniscii_l.meniscus_med_l.torque.X	femur_med_meniscii_l.meniscus_med_l.torque.Y	femur_med_meniscii_l.meniscus_med_l.torque.Z	femur_lat_meniscii_r.femur_lat_r.force.X	femur_lat_meniscii_r.femur_lat_r.force.Y	femur_lat_meniscii_r.femur_lat_r.force.Z	femur_lat_meniscii_r.femur_lat_r.torque.X	femur_lat_meniscii_r.femur_lat_r.torque.Y	femur_lat_meniscii_r.femur_lat_r.torque.Z	femur_lat_meniscii_r.meniscus_lat_r.force.X	femur_lat_meniscii_r.meniscus_lat_r.force.Y	femur_lat_meniscii_r.meniscus_lat_r.force.Z	femur_lat_meniscii_r.meniscus_lat_r.torque.X	femur_lat_meniscii_r.meniscus_lat_r.torque.Y	femur_lat_meniscii_r.meniscus_lat_r.torque.Z	femur_med_meniscii_r.femur_med_r.force.X	femur_med_meniscii_r.femur_med_r.force.Y	femur_med_meniscii_r.femur_med_r.force.Z	femur_med_meniscii_r.femur_med_r.torque.X	femur_med_meniscii_r.femur_med_r.torque.Y	femur_med_meniscii_r.femur_med_r.torque.Z	femur_med_meniscii_r.meniscus_med_r.force.X	femur_med_meniscii_r.meniscus_med_r.force.Y	femur_med_meniscii_r.meniscus_med_r.force.Z	femur_med_meniscii_r.meniscus_med_r.torque.X	femur_med_meniscii_r.meniscus_med_r.torque.Y	femur_med_meniscii_r.meniscus_med_r.torque.Z	femur_med_tibia_l.tibia_upper_l.force.X	femur_med_tibia_l.tibia_upper_l.force.Y	femur_med_tibia_l.tibia_upper_l.force.Z	femur_med_tibia_l.tibia_upper_l.torque.X	femur_med_tibia_l.tibia_upper_l.torque.Y	femur_med_tibia_l.tibia_upper_l.torque.Z	femur_med_tibia_l.femur_med_l.force.X	femur_med_tibia_l.femur_med_l.force.Y	femur_med_tibia_l.femur_med_l.force.Z	femur_med_tibia_l.femur_med_l.torque.X	femur_med_tibia_l.femur_med_l.torque.Y	femur_med_tibia_l.femur_med_l.torque.Z	femur_lat_tibia_l.tibia_upper_l.force.X	femur_lat_tibia_l.tibia_upper_l.force.Y	femur_lat_tibia_l.tibia_upper_l.force.Z	femur_lat_tibia_l.tibia_upper_l.torque.X	femur_lat_tibia_l.tibia_upper_l.torque.Y	femur_lat_tibia_l.tibia_upper_l.torque.Z	femur_lat_tibia_l.femur_lat_l.force.X	femur_lat_tibia_l.femur_lat_l.force.Y	femur_lat_tibia_l.femur_lat_l.force.Z	femur_lat_tibia_l.femur_lat_l.torque.X	femur_lat_tibia_l.femur_lat_l.torque.Y	femur_lat_tibia_l.femur_lat_l.torque.Z	femur_med_tibia_r.tibia_upper_r.force.X	femur_med_tibia_r.tibia_upper_r.force.Y	femur_med_tibia_r.tibia_upper_r.force.Z	femur_med_tibia_r.tibia_upper_r.torque.X	femur_med_tibia_r.tibia_upper_r.torque.Y	femur_med_tibia_r.tibia_upper_r.torque.Z	femur_med_tibia_r.femur_med_r.force.X	femur_med_tibia_r.femur_med_r.force.Y	femur_med_tibia_r.femur_med_r.force.Z	femur_med_tibia_r.femur_med_r.torque.X	femur_med_tibia_r.femur_med_r.torque.Y	femur_med_tibia_r.femur_med_r.torque.Z	femur_lat_tibia_r.tibia_upper_r.force.X	femur_lat_tibia_r.tibia_upper_r.force.Y	femur_lat_tibia_r.tibia_upper_r.force.Z	femur_lat_tibia_r.tibia_upper_r.torque.X	femur_lat_tibia_r.tibia_upper_r.torque.Y	femur_lat_tibia_r.tibia_upper_r.torque.Z	femur_lat_tibia_r.femur_lat_r.force.X	femur_lat_tibia_r.femur_lat_r.force.Y	femur_lat_tibia_r.femur_lat_r.force.Z	femur_lat_tibia_r.femur_lat_r.torque.X	femur_lat_tibia_r.femur_lat_r.torque.Y	femur_lat_tibia_r.femur_lat_r.torque.Z	aACL_R	pACL_R	aPCL_R	pPCL_R	aMCL_R	mMCL_R	pMCL_R	aLCL_R	mLCL_R	pLCL_R	aPCL_L	pPCL_L	aMCL_L	aLCL_L	ground_prescribedForce_-60_fx	ground_prescribedForce_-60_fy	ground_prescribedForce_-60_fz
      0.47226805	      7.61766716	      5.71378242	      6.11676779	      2.68051518	      3.20228854	      3.22217124	      1.02572402	      3.95037814	      4.85015955	      6.36358274	      1.57656613	      5.66142253	      4.17436350	      2.94348558	      2.47486387	      4.02552592	      4.16927043	      2.25699852	      1.55130502	      3.68704097	      5.60320712	      4.18330185	     22.73468988	     13.06478467	      3.65675051	      2.86839378	      4.14625324	     59.44784123	     15.35722358	     16.26930316	     22.14323142	      0.00000000	      0.40104818	     11.32241446	     14.29303481	      2.74445941	      3.70842195	     12.27676748	      3.26258847	      6.75150419	      9.43397989	      7.75869671	      1.70860772	      7.61766716	      5.71378242	      6.11676779	      2.68051518	      3.20228854	      3.22217124	      8.84683163	      4.12058651	      7.76740546	      7.27590020	      1.53202070	      5.66142253	      4.17436350	      2.94348558	      2.47486387	      4.02552592	      4.12056375	      2.25699852	      1.57151373	      3.68704097	      5.60320712	      4.18330185	     22.73468988	     13.06478467	      3.65675051	      2.86839378	      4.14625324	     10.78223742	      6.64985011	      7.62918228	      8.20306525	     14.20652940	      6.59661663	     31.51314607	     42.52618824	      2.78849899	      2.95886355	      8.53837776	      4.38595611	     12.57249878	      2.02107687	      5.33390766	      1.69405669	     25.21000287	     25.21000287	      9.07990757	      9.07990757	     26.87638609	     26.87638609	      2.76307435	     50.99597937	     -9.56042239	      5.21997485	     -0.02578839	      1.48581788	     -2.76307435	    -50.99597937	      9.56042239	     -1.74637766	      0.02558040	     -0.48301696	     -3.31599387	     20.97615968	     -3.40468921	      0.94473225	     -0.02138609	     -1.00501789	      3.31599387	    -20.97615968	      3.40468921	      0.28075727	      0.00368718	     -0.29758878	    241.40601326	    135.90253043	     57.48873606	    -26.76451119	      5.96420880	     98.67115768	   -241.40601326	   -135.90253043	    -57.48873606	      5.08672749	     -8.74508691	     -1.06811237	    534.74559137	     22.40017818	    -52.27667668	     21.67927655	    -10.86903634	    217.21106211	   -534.74559137	    -22.40017818	     52.27667668	     -1.06583416	      8.74237530	     -7.26447495	      0.00000000	      0.00000000	      0.00000000	      0.00000000	      0.00000000	      0.00000000	      0.00000000	      0.00000000	      0.00000000	      0.00000000	      0.00000000	      0.00000000	      0.00000000	      0.00000000	      0.00000000	      0.00000000	      0.00000000	      0.00000000	      0.00000000	      0.00000000	      0.00000000	      0.00000000	      0.00000000	      0.00000000	     -5.53880875	     -4.11163783	      2.58894480	     -0.09154428	      0.11646619	     -0.01058651	      5.53880875	      4.11163783	     -2.58894480	      1.13093283	     -0.09251852	      2.27229503	      0.00000000	      0.00000000	      0.00000000	      0.00000000	      0.00000000	      0.00000000	      0.00000000	      0.00000000	      0.00000000	      0.00000000	      0.00000000	      0.00000000	      0.00000000	      0.00000000	    499.91394491	    214.11993706	     19.82755448	     11.81636946	      4.07313259	      0.00000000	      0.00000000	      0.00000000	      0.00000000	      0.00000000	      0.00000001	      0.00000000	     55.00000000	    -95.26270000	      0.00000000
      0.47476744	      7.61538061	      5.71220758	      6.11506096	      2.67980771	      3.20152318	      3.22120604	      1.02684855	      3.95919757	      4.88040250	      6.37600089	      1.57314647	      5.65984392	      4.17327175	      2.94268022	      2.47417059	      4.02427694	      4.18320926	      2.25639905	      1.55026388	      3.68602554	      5.60165927	      4.18212506	     22.73183399	     13.06157227	      3.65576439	      2.86793200	      4.14442640	     59.54498273	     15.38931808	     16.31341321	     22.21317572	      0.00000000	      0.39651713	     11.35160085	     14.31118856	      2.71442045	      3.67719585	     12.24379870	      3.27731079	      6.75949064	      9.44490458	      7.84441747	      1.74317517	      7.61538061	      5.71220758	      6.11506096	      2.67980771	      3.20152318	      3.22120604	      8.84350376	      4.11936149	      7.76463536	      7.27393689	      1.53161820	      5.65984392	      4.17327175	      2.94268022	      2.47417059	      4.02427694	      4.11979118	      2.25639905	      1.57109369	      3.68602554	      5.60165927	      4.18212506	     22.73183399	     13.06157227	      3.65576439	      2.86793200	      4.14442640	     10.77846693	      6.64797531	      7.62698985	      8.20071979	     14.19852950	      6.59289647	     31.49929096	     42.52075075	      2.78612396	      2.95710415	      8.53553991	      4.38425789	     12.56844370	      2.02057859	      5.33242055	      1.69362669	     25.20333405	     25.20333405	      9.07729192	      9.07729192	     26.87403656	     26.87403656	      2.76307435	     50.99597937	     -9.56042239	      5.21997485	     -0.02578839	      1.48581788	     -2.76307435	    -50.99597937	      9.56042239	     -1.74637766	      0.02558040	     -0.48301696	     -3.31599387	     20.97615968	     -3.40468921	      0.94473225	     -0.02138609	     -1.00501789	      3.31599387	    -20.97615968	      3.40468921	      0.28075727	      0.00368718	     -0.29758878	    241.02791472	    135.18076921	     56.91750983	    -26.51338741	      5.94878051	     98.52577703	   -241.02791472	   -135.18076921	    -56.91750983	      5.05544793	     -8.71743103	     -1.08246424	    534.29654092	     23.34334819	    -52.38175397	     21.74431353	    -10.86578647	    217.02467087	   -534.29654092	    -23.34334819	     52.38175397	     -1.08274577	      8.73840786	     -7.22367699	      0.00000000	      0.00000000	      0.00000000	      0.00000000	      0.00000000	      0.00000000	      0.00000000	      0.00000000	      0.00000000	      0.00000000	      0.00000000	      0.00000000	      0.00000000	      0.00000000	      0.00000000	      0.00000000	      0.00000000	      0.00000000	      0.00000000	      0.00000000	      0.00000000	      0.00000000	      0.00000000	      0.00000000	     -5.00866865	     -3.73299554	      2.31964265	     -0.08231348	      0.10466007	     -0.00903672	      5.00866865	      3.73299554	     -2.31964265	      1.01396891	     -0.08353554	      2.05470141	      0.00000000	      0.00000000	      0.00000000	      0.00000000	      0.00000000	      0.00000000	      0.00000000	      0.00000000	      0.00000000	      0.00000000	      0.00000000	      0.00000000	      0.00000000	      0.00000000	    499.62758684	    213.71552052	     19.51297750	     11.48196669	      3.71064633	      0.00000000	      0.00000000	      0.00000000	      0.00000000	      0.00000000	      0.00000001	      0.00000000	     55.00000000	    -95.26270000	      0.00000000
      0.47630526	      7.61400994	      5.71126353	      6.11403779	      2.67938361	      3.20106438	      3.22062745	      1.02605372	      3.95886352	      4.89060774	      6.36574090	      1.56962110	      5.65889761	      4.17261729	      2.94219744	      2.47375500	      4.02352823	      4.19081849	      2.25603968	      1.54692619	      3.68541683	      5.60073140	      4.18141963	     22.73012201	     13.05964661	      3.65517325	      2.86765518	      4.14333091	     59.57264783	     15.37135895	     16.30246564	     22.21088123	      0.00000000	      0.39250577	     11.36803444	     14.31973956	      2.69630167	      3.65663579	     12.22404523	      3.28690648	      6.76644968	      9.45164734	      7.89144139	      1.76486346	      7.61400994	      5.71126353	      6.11403779	      2.67938361	      3.20106438	      3.22062745	      8.84150874	      4.11862714	      7.76297478	      7.27275996	      1.53137691	      5.65889761	      4.17261729	      2.94219744	      2.47375500	      4.02352823	      4.11932807	      2.25603968	      1.57084189	      3.68541683	      5.60073140	      4.18141963	     22.73012201	     13.05964661	      3.65517325	      2.86765518	      4.14333091	     10.77620665	      6.64685145	      7.62567559	      8.19931381	     14.19372719	      6.59066326	     31.49098270	     42.51749064	      2.78467768	      2.95603708	      8.53383874	      4.38323979	     12.56601121	      2.02027990	      5.33154410	      1.69337359	     25.19933631	     25.19933631	      9.07572395	      9.07572395	     26.87262812	     26.87262812	      2.76307435	     50.99597937	     -9.56042239	      5.21997485	     -0.02578839	      1.48581788	     -2.76307435	    -50.99597937	      9.56042239	     -1.74637766	      0.02558040	     -0.48301696	     -3.31599387	     20.97615968	     -3.40468921	      0.94473225	     -0.02138609	     -1.00501789	      3.31599387	    -20.97615968	      3.40468921	      0.28075727	      0.00368718	     -0.29758878	    233.56223348	    138.53369859	     58.31353726	    -27.16018590	      5.80892018	     95.40054163	   -233.56223348	   -138.53369859	    -58.31353726	      5.17652517	     -8.56443472	     -0.80356156	    534.75791984	     24.09615360	    -52.91100473	     21.98328344	    -10.88002062	    217.20973975	   -534.75791984	    -24.09615360	     52.91100473	     -1.10908940	      8.75826183	     -7.20589618	      0.00000000	      0.00000000	      0.00000000	      0.00000000	      0.00000000	      0.00000000	      0.00000000	      0.00000000	      0.00000000	      0.00000000	      0.00000000	      0.00000000	      0.00000000	      0.00000000	      0.00000000	      0.00000000	      0.00000000	      0.00000000	      0.00000000	      0.00000000	      0.00000000	      0.00000000	      0.00000000	      0.00000000	     -4.76531643	     -3.54950546	      2.20381244	     -0.07817740	      0.09946629	     -0.00861346	      4.76531643	      3.54950546	     -2.20381244	      0.96337386	     -0.07946486	      1.95489362	      0.00000000	      0.00000000	      0.00000000	      0.00000000	      0.00000000	      0.00000000	      0.00000000	      0.00000000	      0.00000000	      0.00000000	      0.00000000	      0.00000000	      0.00000000	      0.00000000	    499.31450507	    213.13214220	     19.23040123	     11.16587184	      3.36242497	      0.00000000	      0.00000000	      0.00000000	      0.00000000	      0.00000000	      0.00000001	      0.00000000	     55.00000000	    -95.26270000	      0.00000000
      0.47799208	      7.61253739	      5.71024929	      6.11293856	      2.67892797	      3.20057147	      3.22000585	      1.03131282	      3.96327442	      4.90801244	      6.37405632	      1.56986829	      5.65788096	      4.17191416	      2.94167877	      2.47330852	      4.02272389	      4.19662019	      2.25565360	      1.54731706	      3.68476288	      5.59973456	      4.18066176	     22.72828278	     13.05757784	      3.65453816	      2.86735780	      4.14215367	     59.63269923	     15.39541160	     16.32965037	     22.25826203	      0.00000000	      0.38824938	     11.36290679	     14.32034156	      2.67584543	      3.63174537	     12.20776706	      3.29888230	      6.77635382	      9.46587901	      7.94162418	      1.78947780	      7.61253739	      5.71024929	      6.11293856	      2.67892797	      3.20057147	      3.22000585	      8.83936535	      4.11783822	      7.76119073	      7.27149554	      1.53111768	      5.65788096	      4.17191416	      2.94167877	      2.47330852	      4.02272389	      4.11883054	      2.25565360	      1.57057137	      3.68476288	      5.59973456	      4.18066176	     22.72828278	     13.05757784	      3.65453816	      2.86735780	      4.14215367	     10.77377834	      6.64564406	      7.62426365	      8.19780332	     14.18856220	      6.58826139	     31.48205456	     42.51398771	      2.78310400	      2.95487978	      8.53201113	      4.38214592	     12.56339650	      2.01995900	      5.33061567	      1.69310577	     25.19504136	     25.19504136	      9.07403944	      9.07403944	     26.87111499	     26.87111499	      2.76307435	     50.99597937	     -9.56042239	      5.21997485	     -0.02578839	      1.48581788	     -2.76307435	    -50.99597937	      9.56042239	     -1.74637766	      0.02558040	     -0.48301696	     -3.31599387	     20.97615968	     -3.40468921	      0.94473225	     -0.02138609	     -1.00501789	      3.31599387	    -20.97615968	      3.40468921	      0.28075727	      0.00368718	     -0.29758878	    234.54340653	    137.04765598	     57.32693356	    -26.71977883	      5.81861457	     95.82561058	   -234.54340653	   -137.04765598	    -57.32693356	      5.11372879	     -8.56000662	     -0.87446641	    537.48996669	     22.01294871	    -54.96032408	     22.78101170	    -10.95974934	    218.35140580	   -537.48996669	    -22.01294871	     54.96032408	     -1.11621659	      8.86336893	     -7.31803429	      0.00000000	      0.00000000	      0.00000000	      0.00000000	      0.00000000	      0.00000000	      0.00000000	      0.00000000	      0.00000000	      0.00000000	      0.00000000	      0.00000000	      0.00000000	      0.00000000	      0.00000000	      0.00000000	      0.00000000	      0.00000000	      0.00000000	      0.00000000	      0.00000000	      0.00000000	      0.00000000	      0.00000000	     -4.59849427	     -3.39715511	      2.13445173	     -0.07539760	      0.09620218	     -0.00911315	      4.59849427	      3.39715511	     -2.13445173	      0.93253194	     -0.07675119	      1.88669385	      0.00000000	      0.00000000	      0.00000000	      0.00000000	      0.00000000	      0.00000000	      0.00000000	      0.00000000	      0.00000000	      0.00000000	      0.00000000	      0.00000000	      0.00000000	      0.00000000	    498.63247515	    212.03661435	     19.07114023	     10.93869420	      3.07386870	      0.00000000	      0.00000000	      0.00000000	      0.00000000	      0.00000000	      0.00000001	      0.00000000	     55.00000000	    -95.26270000	      0.00000000
